<?xml version="1.0" standalone="no"?>
<!DOCTYPE svg PUBLIC "-//W3C//DTD SVG 20010904//EN"
 "http://www.w3.org/TR/2001/REC-SVG-20010904/DTD/svg10.dtd">
<svg version="1.0" xmlns="http://www.w3.org/2000/svg"
 width="50px" height="50px" viewBox="0 0 512.000000 512.000000"
 preserveAspectRatio="xMidYMid meet">
<metadata>
Created by potrace 1.16, written by Peter Selinger 2001-2019
</metadata>
<g transform="translate(0.000000,512.000000) scale(0.100000,-0.100000)"
fill="#000000" stroke="none">
<path d="M2420 4784 c-159 -21 -334 -69 -468 -130 -328 -149 -654 -471 -807
-797 -96 -203 -129 -357 -129 -592 1 -232 36 -372 155 -616 38 -78 69 -147 69
-155 0 -24 -47 -87 -95 -127 -69 -58 -79 -129 -35 -232 44 -101 125 -175 222
-202 l57 -16 21 -89 c31 -134 50 -341 50 -562 0 -120 5 -214 11 -237 19 -60
59 -100 201 -197 159 -109 254 -192 379 -330 73 -81 106 -109 154 -132 113
-55 320 -75 495 -46 166 27 207 52 420 261 91 88 217 204 280 256 199 166 190
144 190 453 0 257 15 410 52 540 l23 78 59 19 c113 34 223 127 264 222 29 67
7 169 -44 203 -43 29 -104 93 -104 110 0 8 38 90 84 182 135 270 169 400 168
652 0 171 -17 283 -67 436 -65 197 -173 374 -337 549 -298 317 -671 488 -1088
499 -80 3 -161 2 -180 0z m428 -63 c299 -66 535 -195 753 -411 124 -123 198
-217 272 -345 178 -308 225 -728 118 -1038 -27 -79 -78 -170 -109 -199 l-25
-23 21 35 c25 43 77 181 86 230 3 20 -4 8 -18 -30 -38 -106 -85 -185 -100
-169 -2 2 13 48 34 101 45 114 65 197 25 102 -14 -33 -39 -76 -55 -95 l-29
-34 0 40 c-1 51 19 125 54 204 41 90 78 101 95 30 8 -33 9 -33 7 10 -2 32 -8
47 -23 58 -31 20 -57 -6 -99 -102 -29 -66 -35 -74 -35 -49 0 51 19 136 40 178
18 37 18 38 1 20 -23 -24 -49 -102 -58 -171 -3 -29 -10 -50 -14 -47 -15 9 -10
144 7 206 31 108 109 157 102 64 -2 -36 0 -42 26 -55 25 -12 31 -11 54 6 14
11 30 31 35 46 13 39 -23 110 -67 131 -38 18 -72 22 -41 4 38 -21 75 -61 86
-95 9 -28 8 -38 -6 -59 -27 -41 -55 -29 -70 30 -14 52 -35 76 -69 76 -23 -1
-87 -76 -126 -148 -20 -35 -26 -40 -33 -26 -11 19 -1 138 15 187 5 18 37 89
69 158 68 144 86 222 71 315 l-10 59 -1 -87 c-1 -95 -35 -214 -52 -187 -7 11
-9 9 -9 -6 0 -22 -100 -188 -108 -180 -3 3 1 51 8 107 7 57 13 193 14 303 0
187 -1 203 -22 245 -12 25 -19 36 -16 25 33 -101 42 -169 24 -180 -6 -4 -10
-54 -10 -116 0 -91 -6 -132 -31 -232 -28 -108 -31 -133 -27 -222 5 -104 5
-105 103 -375 37 -100 39 -112 46 -275 7 -172 20 -238 60 -317 23 -46 24 -52
2 -44 -11 3 -7 -3 9 -17 55 -46 66 -141 21 -177 -33 -26 -76 -23 -81 5 -15 80
-134 92 -160 16 -12 -34 -18 -36 -57 -21 -20 8 -26 7 -23 -2 3 -7 20 -18 38
-24 20 -7 37 -21 42 -35 27 -73 89 -80 150 -19 22 22 44 40 50 40 20 0 62 36
73 65 8 17 11 49 8 76 -7 58 9 71 44 36 79 -79 6 -232 -149 -314 l-53 -28
-210 3 c-233 2 -272 -4 -337 -58 -21 -18 -51 -59 -70 -97 -28 -58 -33 -77 -33
-143 0 -59 5 -83 21 -111 15 -25 19 -41 12 -52 -12 -22 -37 -22 -36 1 1 9 -11
52 -26 95 -38 110 -44 191 -18 249 48 110 158 188 265 188 70 0 67 14 -8 35
-107 31 -166 -7 -242 -154 -40 -78 -43 -88 -43 -166 0 -59 7 -108 25 -169 27
-92 33 -146 14 -113 -12 20 -42 22 -58 4 -6 -8 -23 -12 -41 -9 -22 3 -35 -2
-52 -20 l-21 -25 -22 25 c-20 24 -22 24 -52 8 -17 -8 -33 -21 -35 -27 -3 -8
-13 -7 -35 5 -42 21 -50 20 -78 -8 -18 -18 -25 -21 -29 -10 -7 19 -35 18 -57
-2 -16 -14 -17 -4 -12 188 2 112 8 226 12 254 8 56 -2 98 -21 91 -13 -4 -16
-57 -8 -147 2 -25 3 -130 2 -234 l-2 -190 -30 29 c-27 25 -32 27 -56 16 -22
-10 -30 -9 -44 4 -14 13 -23 14 -38 6 -15 -8 -23 -6 -37 9 -22 24 -68 26 -90
4 -14 -15 -18 -14 -40 10 -27 29 -56 33 -75 11 -11 -14 -15 -14 -33 2 -10 10
-27 17 -37 15 -11 -2 -20 4 -23 15 -3 15 -5 15 -14 -6 -9 -22 -10 -22 -26 -6
-18 18 -20 39 -7 70 8 18 9 18 9 2 2 -35 21 -5 42 64 33 110 24 222 -28 322
-3 4 6 11 19 16 16 6 28 4 41 -7 16 -14 17 -13 17 15 0 40 -38 76 -76 71 -40
-4 -41 -26 -4 -116 27 -64 32 -88 32 -152 -1 -62 -21 -172 -34 -185 -2 -2 -3
36 -3 83 0 75 -4 95 -29 145 -33 68 -105 130 -169 148 -29 8 -73 9 -142 3 -55
-5 -145 -8 -200 -9 -90 0 -106 3 -157 28 -106 52 -193 197 -170 281 8 28 56
75 66 65 3 -3 -1 -27 -9 -54 -9 -27 -13 -57 -10 -66 8 -23 77 -77 92 -72 7 3
9 -3 6 -17 -4 -16 -8 -18 -14 -8 -5 7 -9 9 -9 3 0 -5 5 -17 10 -25 8 -12 12
-9 22 18 16 41 31 41 46 -1 24 -67 102 -68 138 -1 10 18 26 34 35 34 25 0 49
11 49 22 0 5 -15 6 -35 2 -29 -5 -35 -3 -35 10 0 25 -46 66 -73 66 -31 0 -77
-36 -77 -61 0 -16 -7 -19 -48 -19 -107 0 -116 47 -42 206 71 151 82 202 85
375 3 171 17 233 79 369 84 182 94 299 44 505 -30 124 -31 134 -21 225 10 86
9 99 -8 135 -11 22 -17 31 -13 20 15 -51 16 -95 4 -187 -11 -83 -11 -116 -1
-187 8 -47 15 -108 18 -136 l4 -50 -24 42 c-14 23 -37 58 -52 77 -39 51 -67
148 -68 236 -1 62 -2 69 -9 40 -4 -19 -5 -64 -2 -100 4 -47 2 -61 -5 -50 -6 8
-11 51 -12 95 -1 76 -2 78 -10 35 -12 -57 -4 -116 21 -148 11 -13 20 -30 20
-37 0 -7 19 -59 42 -116 37 -94 42 -114 46 -211 5 -109 0 -130 -19 -80 -14 39
-92 151 -105 152 -22 0 -64 -53 -64 -81 0 -38 -25 -62 -51 -49 -45 25 -11 120
56 152 l40 19 -34 -5 c-77 -13 -126 -106 -85 -164 16 -23 53 -29 71 -11 17 17
48 -5 68 -47 14 -31 38 -182 29 -193 -1 -1 -8 16 -14 40 -17 61 -58 139 -77
146 -23 9 -53 -32 -52 -71 l1 -31 9 31 c14 51 33 60 58 28 32 -41 51 -119 51
-208 l0 -81 -20 30 c-11 17 -27 55 -36 85 -29 98 -35 109 -29 60 3 -25 22 -94
41 -153 20 -60 34 -110 31 -113 -6 -7 -71 121 -96 191 -12 33 -28 96 -35 140
-8 44 -14 67 -15 50 -2 -71 54 -267 108 -378 26 -54 27 -56 5 -36 -39 36 -94
154 -120 257 -55 215 -38 510 43 729 9 24 19 41 23 38 4 -3 7 6 8 19 0 29 70
169 124 249 58 85 175 221 264 308 227 218 485 350 789 404 116 21 381 13 503
-14z m-1594 -1410 c26 -28 55 -114 61 -178 l6 -58 -32 79 c-23 58 -39 83 -60
95 -30 17 -38 48 -17 69 16 16 22 15 42 -7z m2468 -1088 c22 -20 24 -53 3 -53
-8 0 -15 -4 -15 -10 0 -5 14 -10 30 -10 42 0 38 -20 -10 -53 -59 -41 -115 -7
-115 70 0 33 5 48 19 59 26 19 65 18 88 -3z m-2276 -18 c37 -56 -16 -142 -72
-117 -33 16 -42 42 -19 58 10 8 13 14 7 14 -15 0 -16 25 -2 51 16 29 65 25 86
-6z m114 -381 c18 -84 7 -83 -16 1 -15 52 -17 72 -8 64 7 -6 18 -35 24 -65z
m1929 -124 c1 -107 -5 -201 -20 -300 -12 -87 -18 -165 -14 -195 12 -99 21 -72
21 63 1 195 47 439 100 532 l15 25 -5 -30 c-34 -190 -38 -235 -40 -480 -2
-215 -5 -265 -19 -290 -18 -35 -77 -92 -197 -192 -47 -39 -162 -145 -256 -235
-101 -98 -189 -173 -215 -186 -89 -43 -165 -56 -324 -56 -155 0 -249 15 -318
50 -18 9 -106 92 -197 183 -137 138 -189 184 -305 263 -141 97 -172 124 -195
167 -8 16 -13 100 -15 270 -2 220 -19 427 -41 498 -3 10 1 7 9 -7 8 -14 27
-74 41 -135 22 -92 25 -100 21 -50 -3 32 -8 71 -11 85 l-5 25 15 -25 c19 -30
50 -131 66 -215 18 -91 36 -139 97 -263 53 -106 62 -140 29 -113 -8 6 -17 27
-20 45 -10 52 -31 63 -32 18 -1 -21 -3 -52 -4 -71 -3 -27 3 -39 24 -58 37 -32
74 -31 82 3 5 18 10 22 17 15 6 -6 17 -11 25 -11 9 0 6 7 -9 19 -32 25 -125
211 -144 286 -15 59 -40 376 -33 412 2 10 14 -47 27 -127 12 -80 32 -171 42
-203 16 -48 104 -210 130 -241 14 -16 -20 87 -51 154 l-30 65 60 -65 c48 -53
61 -73 66 -110 10 -69 23 -94 23 -47 1 21 6 47 12 58 10 19 11 19 40 -6 17
-14 41 -25 53 -25 13 0 31 -12 45 -31 18 -24 28 -29 47 -25 13 4 34 1 45 -5
15 -8 28 -8 44 -1 34 16 40 -10 9 -39 l-24 -22 -23 21 c-21 20 -25 21 -45 6
-30 -21 -28 -38 2 -19 23 15 25 15 36 -4 14 -27 31 -26 58 2 17 17 30 22 52
19 17 -2 36 1 43 7 11 8 19 5 37 -14 25 -26 59 -32 77 -14 8 8 17 8 33 -1 12
-7 35 -10 51 -8 23 4 29 1 29 -13 0 -10 -9 -19 -22 -22 -13 -2 2 -4 32 -4 30
-1 61 4 68 10 10 8 16 7 24 -4 8 -11 9 -11 4 3 -3 10 -1 20 4 23 5 3 7 12 4
20 -4 11 -12 7 -31 -15 -29 -35 -63 -40 -63 -10 0 15 7 20 29 20 16 0 34 7 41
15 11 13 15 13 33 0 29 -20 49 -19 80 5 22 17 29 18 51 8 23 -10 31 -8 57 11
19 14 37 20 50 16 13 -4 28 0 40 11 11 9 28 18 39 19 10 1 28 10 40 20 17 15
20 16 20 2 0 -8 -7 -23 -16 -32 -9 -9 -13 -19 -9 -23 11 -11 45 38 45 64 0 20
5 24 28 24 17 0 38 10 51 24 13 14 33 26 44 28 11 2 25 12 31 22 11 20 59 66
64 62 1 -2 -4 -18 -12 -37 -8 -19 -17 -56 -20 -84 -7 -57 -12 -65 66 106 26
58 48 110 47 115 0 5 -9 -9 -19 -31 -29 -63 -23 -21 14 94 19 58 41 138 49
176 l15 70 1 -97 c1 -105 -20 -290 -43 -378 -8 -30 -13 -56 -12 -58 7 -6 68
145 82 201 8 34 19 143 24 242 5 99 12 189 16 199 7 19 8 19 15 0 4 -10 8 -89
8 -174z m-1666 100 c30 -60 37 -141 13 -175 -7 -11 -14 -47 -15 -80 -2 -74
-21 -100 -45 -62 -27 40 -37 133 -30 270 7 127 7 128 28 114 11 -7 33 -37 49
-67z m1444 10 c3 -36 6 -114 6 -175 2 -88 -2 -116 -16 -142 -10 -18 -24 -33
-32 -33 -20 0 -29 61 -16 102 9 28 8 40 -6 69 -11 22 -18 57 -18 100 0 55 4
72 28 108 16 23 33 41 38 39 6 -2 13 -33 16 -68z m-1327 -32 c22 -49 26 -151
7 -185 -10 -18 -12 -8 -13 65 0 48 -6 104 -12 125 -14 49 -6 47 18 -5z m1199
3 c-6 -17 -9 -67 -8 -110 3 -63 2 -75 -8 -62 -18 23 -16 124 3 171 19 47 29
48 13 1z m19 -237 c-3 -14 -5 -12 -10 9 -3 19 -2 25 4 19 6 -6 8 -18 6 -28z
m-1261 4 c-3 -8 -6 -5 -6 6 -1 11 2 17 5 13 3 -3 4 -12 1 -19z m49 -24 c-4
-12 -10 -14 -17 -7 -5 5 -7 17 -3 27 4 12 10 14 17 7 5 -5 7 -17 3 -27z m-51
-91 c-3 -19 -9 -33 -12 -30 -3 3 -2 25 2 49 5 24 10 37 12 30 3 -7 2 -29 -2
-49z m1284 4 c-1 -40 -2 -40 -9 -12 -11 44 -11 67 0 60 6 -3 9 -25 9 -48z
m-39 1 c12 -43 6 -108 -10 -108 -6 0 -10 27 -10 59 0 33 -3 66 -6 75 -3 9 -1
16 5 16 5 0 15 -19 21 -42z m-1205 -107 c-6 -14 -8 -14 -17 2 -10 18 -4 91 10
126 9 20 15 -106 7 -128z m259 27 c3 -29 2 -79 -3 -111 -15 -90 -27 -98 -61
-41 -20 31 -22 46 -18 122 2 48 10 98 17 111 l14 25 22 -26 c14 -17 25 -46 29
-80z m827 46 c18 -80 7 -174 -21 -174 -6 0 -10 49 -10 117 0 84 3 114 11 106
6 -6 15 -28 20 -49z m66 -22 c6 -65 -3 -120 -17 -106 -4 5 -9 45 -10 89 -3
100 -2 101 11 88 6 -6 13 -38 16 -71z m-1081 46 c-3 -13 -6 -56 -6 -95 0 -72
-12 -95 -26 -51 -8 27 -8 120 1 148 9 29 39 27 31 -2z m73 -93 c13 -111 14
-135 1 -135 -32 0 -52 129 -34 220 10 47 20 20 33 -85z m235 31 c4 -35 5 -81
1 -102 -10 -61 -36 -125 -49 -121 -35 11 -57 143 -37 224 27 105 74 105 85 -1z
m539 -9 c25 -147 -43 -301 -72 -160 -27 138 1 285 47 239 7 -7 18 -43 25 -79z
m95 48 c7 -21 13 -61 15 -89 3 -82 -47 -172 -67 -120 -3 9 -6 55 -6 103 0 138
29 192 58 106z m-233 1 c9 -13 21 -49 27 -80 14 -63 1 -149 -28 -194 -13 -20
-18 -22 -29 -11 -7 8 -17 35 -24 61 -12 50 -15 205 -5 232 9 24 41 19 59 -8z
m-311 -57 c9 -68 1 -205 -14 -228 -25 -41 -66 82 -56 171 7 70 31 131 48 126
7 -3 17 -33 22 -69z m212 -9 c27 -104 0 -220 -53 -228 -18 -3 -21 4 -27 65 -7
81 6 185 29 220 22 32 30 23 51 -57z m-119 33 c10 -24 16 -69 16 -123 0 -129
-37 -190 -70 -113 -32 75 -13 273 27 273 6 0 18 -17 27 -37z"/>
<path d="M2162 4571 c-174 -73 -376 -232 -421 -332 -30 -64 -25 -84 5 -22 57
118 248 269 449 354 50 21 83 38 75 38 -8 0 -57 -17 -108 -38z"/>
<path d="M2539 4163 c-1 -247 -4 -587 -8 -758 l-6 -310 -43 68 c-24 37 -46 67
-48 67 -2 0 6 -24 18 -52 54 -135 58 -150 58 -216 0 -74 -19 -118 -65 -148
-34 -22 -40 -14 -26 40 19 77 14 174 -13 231 -13 28 -33 59 -45 69 -16 15 -13
5 13 -38 38 -63 51 -120 44 -194 -10 -102 -59 -146 -162 -145 -73 0 -111 16
-259 106 -121 74 -286 142 -387 159 -61 11 -70 10 -101 -8 -61 -36 -74 -72
-76 -216 -2 -70 1 -129 5 -132 4 -2 8 3 9 12 1 9 6 42 10 72 l9 55 7 -50 c5
-27 18 -81 30 -119 l22 -69 0 115 c0 107 2 117 27 155 15 22 42 51 60 64 l33
22 -32 -34 c-44 -46 -63 -98 -63 -166 0 -64 16 -133 30 -133 6 0 10 30 10 68
0 37 6 85 12 107 l12 40 7 -70 c3 -38 11 -81 16 -95 6 -14 13 -49 17 -79 4
-30 12 -63 17 -73 13 -24 52 -23 75 3 26 29 122 93 170 114 55 24 177 66 180
62 2 -2 -55 -29 -126 -61 -72 -32 -132 -61 -134 -65 -3 -4 26 3 64 16 38 13
98 25 132 28 l63 5 -65 -17 -65 -16 57 -12 c72 -14 80 -22 32 -30 -68 -11
-167 -45 -254 -88 l-85 -42 65 -3 c36 -1 111 6 168 16 56 11 102 18 102 16 0
-6 -81 -47 -140 -72 -33 -14 -43 -21 -25 -17 47 8 312 146 357 185 22 19 56
66 76 104 42 80 62 94 62 44 0 -66 -91 -215 -124 -202 -23 9 -39 -5 -25 -22 8
-9 8 -18 2 -26 -6 -7 -10 -28 -10 -47 0 -46 -48 -91 -99 -91 -31 0 -37 4 -52
38 l-16 37 -4 -29 c-5 -40 31 -76 75 -76 56 0 89 24 119 87 16 32 35 63 43 69
9 7 11 13 3 18 -6 3 -18 -4 -26 -16 -17 -24 -30 -20 -20 7 4 9 26 25 50 35 51
22 79 69 104 174 9 39 23 72 30 74 12 4 11 -31 -5 -128 -3 -14 2 -7 9 15 8 22
15 63 15 90 1 46 4 52 36 73 l35 22 0 -97 c0 -126 18 -113 22 16 l3 94 33 -31
c18 -17 36 -31 40 -31 4 0 9 -36 13 -78 3 -47 12 -90 23 -108 16 -28 17 -29
12 -5 -14 68 -18 139 -8 156 9 16 12 12 21 -24 7 -23 14 -42 17 -42 4 0 3 11
0 24 -4 18 0 28 19 40 13 9 26 16 29 16 2 0 8 -25 11 -55 12 -90 40 -118 212
-213 83 -46 176 -91 206 -102 125 -44 259 -47 325 -8 17 11 32 16 32 11 1 -4
10 3 20 16 11 13 20 28 20 35 -1 6 -8 -1 -16 -16 -15 -30 -30 -38 -20 -13 7
20 3 19 -40 -10 -46 -31 -89 -39 -178 -32 -94 7 -183 38 -282 98 -45 27 -103
59 -130 71 -27 13 -59 30 -70 38 -27 19 -64 79 -64 104 0 12 9 2 23 -25 27
-51 78 -89 119 -89 16 0 51 11 78 25 27 14 56 25 65 25 36 0 11 20 -40 31 -30
7 -53 14 -50 17 8 9 128 -19 184 -44 75 -32 39 -5 -74 56 -130 71 -144 86 -35
38 52 -23 138 -70 191 -105 68 -45 105 -63 128 -63 69 0 117 91 128 240 4 69
2 80 -25 133 -21 42 -24 53 -11 41 40 -36 72 -122 79 -212 l6 -87 13 44 c7 24
16 71 21 105 7 50 8 38 5 -62 -2 -70 1 -120 6 -116 22 13 43 123 44 229 0 99
-3 115 -26 160 -33 65 -57 77 -139 71 -117 -9 -287 -78 -499 -204 -82 -49
-102 -57 -157 -60 -58 -4 -65 -2 -88 23 -58 62 -57 205 1 290 24 34 54 53 208
130 354 177 505 256 505 263 0 4 -46 -15 -102 -42 -57 -27 -161 -73 -233 -103
-180 -76 -312 -149 -365 -203 -48 -47 -80 -122 -80 -184 0 -30 19 -112 35
-148 9 -23 -24 -24 -64 -4 -45 24 -64 62 -69 141 -4 63 -1 78 32 157 20 48 36
90 36 95 0 4 -15 -14 -33 -42 l-32 -49 -6 69 c-3 39 -3 377 -1 753 3 375 2
682 -2 682 -3 0 -7 -201 -7 -447z m-214 -1475 c-14 -45 -46 -113 -63 -131 -9
-11 -30 -26 -47 -34 -27 -14 -25 -11 13 26 43 42 81 109 82 144 0 9 5 17 11
17 6 0 8 -9 4 -22z m-182 -75 c-7 -2 -21 -2 -30 0 -10 3 -4 5 12 5 17 0 24 -2
18 -5z"/>
<path d="M2896 4576 c232 -95 422 -233 495 -361 16 -27 29 -43 29 -34 0 47
-130 188 -245 266 -72 48 -186 107 -273 139 -94 36 -99 28 -6 -10z"/>
<path d="M1616 4273 c-30 -54 -64 -127 -76 -163 -24 -71 -39 -223 -23 -233 6
-4 12 29 16 86 7 106 24 162 96 305 28 56 49 102 47 102 -3 0 -29 -44 -60 -97z"/>
<path d="M3470 4318 c0 -4 27 -59 60 -122 33 -64 60 -109 60 -101 0 8 -20 53
-45 101 -45 85 -75 134 -75 122z"/>
<path d="M1696 4109 c-10 -54 -7 -120 10 -181 23 -81 30 -65 9 19 -12 48 -15
86 -11 131 7 66 3 83 -8 31z"/>
<path d="M3422 4103 c10 -39 7 -184 -6 -218 -7 -19 -7 -19 7 -2 31 38 28 233
-3 252 -5 3 -4 -11 2 -32z"/>
<path d="M3504 4124 c7 -18 20 -89 32 -184 6 -40 3 -50 -21 -78 -15 -18 -54
-53 -86 -78 -69 -53 -91 -84 -60 -84 12 0 19 5 17 13 -3 6 32 43 76 81 43 37
84 80 89 94 14 37 -21 235 -44 249 -7 4 -8 -1 -3 -13z"/>
<path d="M1596 4089 c-3 -17 -5 -55 -5 -83 2 -42 3 -38 9 29 9 85 7 107 -4 54z"/>
<path d="M1960 4093 c0 -7 11 -48 25 -93 32 -101 69 -141 152 -165 32 -9 90
-31 128 -49 83 -38 125 -84 155 -166 14 -39 18 -45 14 -20 -10 56 -56 132
-100 166 -23 17 -89 48 -147 68 -69 25 -114 48 -132 66 -15 16 -42 68 -61 117
-18 48 -33 83 -34 76z"/>
<path d="M3056 4053 c-9 -26 -29 -71 -46 -99 -27 -48 -37 -56 -142 -109 -62
-32 -128 -71 -145 -88 -33 -31 -69 -116 -60 -140 3 -6 6 -3 6 8 2 31 36 100
62 124 13 13 74 47 135 76 62 30 121 66 132 80 23 28 86 184 79 192 -3 2 -12
-17 -21 -44z"/>
<path d="M3343 3950 c-17 -39 -30 -70 -27 -70 7 0 65 122 62 131 -2 5 -17 -23
-35 -61z"/>
<path d="M1742 3990 c0 -8 6 -31 13 -50 7 -19 13 -28 13 -20 0 8 -6 31 -13 50
-7 19 -13 28 -13 20z"/>
<path d="M1601 3929 c-1 -31 41 -96 110 -169 58 -62 48 -43 -22 40 -49 58 -67
88 -80 129 l-7 26 -1 -26z"/>
<path d="M1262 3890 c0 -14 2 -19 5 -12 2 6 2 18 0 25 -3 6 -5 1 -5 -13z"/>
<path d="M1510 3796 c0 -8 7 -16 15 -20 17 -6 18 -4 9 18 -8 20 -24 21 -24 2z"/>
<path d="M2183 3745 c20 -38 42 -79 51 -90 9 -11 -2 16 -25 60 -22 44 -45 85
-51 90 -5 6 6 -21 25 -60z"/>
<path d="M3585 3790 c4 -6 11 -8 16 -5 14 9 11 15 -7 15 -8 0 -12 -5 -9 -10z"/>
<path d="M3925 3775 c12 -69 8 -129 -10 -140 -46 -27 -49 -32 -19 -28 44 7 78
-25 78 -72 0 -25 -6 -42 -19 -52 -18 -12 -22 -12 -39 9 l-18 23 3 -25 c5 -35
51 -40 73 -8 24 34 20 73 -13 110 -23 26 -27 38 -19 51 10 19 2 107 -13 142
-7 15 -8 13 -4 -10z"/>
<path d="M1840 3784 c0 -3 5 -15 11 -26 20 -36 -5 -40 -41 -6 -29 29 -32 30
-20 8 25 -50 300 -307 300 -281 0 5 -48 70 -106 143 -59 73 -112 141 -118 151
-10 16 -26 23 -26 11z"/>
<path d="M3182 3717 c-187 -221 -210 -245 -215 -226 -6 24 -35 35 -55 22 -24
-15 -26 -33 -3 -33 31 0 26 -19 -20 -80 -48 -64 -73 -110 -60 -110 5 0 42 37
81 83 40 45 96 102 124 126 76 66 276 264 276 274 0 5 -15 -4 -32 -19 l-33
-27 -5 26 c-5 25 -7 23 -58 -36z"/>
<path d="M1520 3741 c0 -6 5 -13 10 -16 6 -3 10 1 10 9 0 9 -4 16 -10 16 -5 0
-10 -4 -10 -9z"/>
<path d="M1152 3704 c-2 -29 4 -46 17 -58 18 -16 18 -18 -10 -46 -21 -21 -29
-38 -29 -64 0 -40 31 -79 57 -74 25 5 40 35 27 55 -13 20 -34 29 -34 14 0 -6
5 -10 12 -8 19 4 21 -32 2 -40 -20 -7 -54 28 -54 57 0 35 39 70 78 71 l37 1
-30 13 c-42 18 -63 44 -68 85 -4 35 -4 35 -5 -6z"/>
<path d="M3570 3729 c0 -5 5 -7 10 -4 6 3 10 8 10 11 0 2 -4 4 -10 4 -5 0 -10
-5 -10 -11z"/>
<path d="M1645 3721 c3 -6 23 -20 45 -32 28 -16 47 -37 65 -75 30 -62 81 -109
208 -194 107 -71 84 -48 -61 62 -78 60 -108 90 -134 135 -24 41 -47 65 -82 85
-26 16 -45 24 -41 19z"/>
<path d="M3783 3695 c0 -22 2 -30 4 -17 2 12 2 30 0 40 -3 9 -5 -1 -4 -23z"/>
<path d="M3412 3698 c-27 -13 -47 -31 -53 -47 -15 -39 -82 -104 -194 -189
-109 -82 -137 -106 -90 -77 130 78 295 224 295 259 0 9 18 25 39 36 22 11 42
24 46 30 8 13 8 13 -43 -12z"/>
<path d="M1630 3576 c33 -35 176 -138 230 -166 39 -20 13 1 -94 75 -54 37
-114 81 -135 98 l-36 31 35 -38z"/>
<path d="M2651 3584 c0 -11 3 -14 6 -6 3 7 2 16 -1 19 -3 4 -6 -2 -5 -13z"/>
<path d="M3455 3589 c-10 -15 3 -25 16 -12 7 7 7 13 1 17 -6 3 -14 1 -17 -5z"/>
<path d="M2441 3544 c0 -11 3 -14 6 -6 3 7 2 16 -1 19 -3 4 -6 -2 -5 -13z"/>
<path d="M3377 3541 c-40 -26 -47 -36 -12 -18 42 23 62 37 50 36 -5 0 -22 -8
-38 -18z"/>
<path d="M2641 3534 c0 -11 3 -14 6 -6 3 7 2 16 -1 19 -3 4 -6 -2 -5 -13z"/>
<path d="M3936 3541 c-4 -7 -5 -15 -2 -18 9 -9 19 4 14 18 -4 11 -6 11 -12 0z"/>
<path d="M3290 3525 c-8 -9 -8 -15 -2 -15 12 0 26 19 19 26 -2 2 -10 -2 -17
-11z"/>
<path d="M3470 3520 c0 -5 5 -10 10 -10 6 0 10 5 10 10 0 6 -4 10 -10 10 -5 0
-10 -4 -10 -10z"/>
<path d="M1600 3510 c0 -5 5 -10 10 -10 6 0 10 5 10 10 0 6 -4 10 -10 10 -5 0
-10 -4 -10 -10z"/>
<path d="M2114 3495 c-15 -23 -15 -26 4 -52 27 -38 152 -160 152 -149 0 5 -25
46 -57 92 -46 69 -54 86 -44 98 7 8 10 20 6 26 -11 18 -44 11 -61 -15z"/>
<path d="M2452 3500 c0 -14 2 -19 5 -12 2 6 2 18 0 25 -3 6 -5 1 -5 -13z"/>
<path d="M2631 3484 c0 -11 3 -14 6 -6 3 7 2 16 -1 19 -3 4 -6 -2 -5 -13z"/>
<path d="M1620 3472 c0 -8 59 -39 370 -199 113 -58 212 -111 221 -119 15 -13
16 -12 11 11 -2 14 -16 34 -31 44 -26 19 -213 107 -331 156 -36 15 -96 44
-135 63 -88 46 -105 53 -105 44z"/>
<path d="M3447 3398 c-21 -45 -36 -83 -34 -84 2 -2 21 32 42 76 21 44 36 82
34 85 -3 3 -22 -32 -42 -77z"/>
<path d="M2461 3444 c0 -11 3 -14 6 -6 3 7 2 16 -1 19 -3 4 -6 -2 -5 -13z"/>
<path d="M1338 3385 c2 -14 6 -25 8 -25 2 0 4 11 4 25 0 14 -4 25 -9 25 -4 0
-6 -11 -3 -25z"/>
<path d="M1637 3387 c-7 -18 19 -77 34 -77 8 0 5 7 -6 20 -12 13 -15 27 -11
45 6 25 -8 36 -17 12z"/>
<path d="M3287 3394 c-14 -14 -7 -35 11 -32 9 2 17 10 17 17 0 16 -18 25 -28
15z"/>
<path d="M1300 3369 c0 -5 5 -7 10 -4 6 3 10 8 10 11 0 2 -4 4 -10 4 -5 0 -10
-5 -10 -11z"/>
<path d="M3780 3364 c0 -8 5 -12 10 -9 6 4 8 11 5 16 -9 14 -15 11 -15 -7z"/>
<path d="M2060 3356 c0 -2 8 -10 18 -17 15 -13 16 -12 3 4 -13 16 -21 21 -21
13z"/>
<path d="M3224 3244 c-34 -7 -95 -28 -135 -47 -77 -36 -184 -107 -161 -107 7
0 28 11 45 24 89 66 230 126 298 126 42 0 63 -23 54 -57 -3 -10 0 -7 7 5 14
27 3 51 -27 62 -11 4 -48 1 -81 -6z"/>
<path d="M1763 3240 c-40 -16 -30 -80 12 -80 6 1 2 7 -7 14 -21 15 -23 41 -6
52 6 4 25 11 42 15 27 6 28 7 6 7 -14 1 -35 -3 -47 -8z"/>
<path d="M1871 3226 c58 -22 121 -56 169 -90 67 -47 80 -52 37 -13 -42 38
-164 102 -212 112 -27 5 -27 4 6 -9z"/>
<path d="M3400 3160 c0 -5 7 -10 15 -10 8 0 15 5 15 10 0 6 -7 10 -15 10 -8 0
-15 -4 -15 -10z"/>
<path d="M3455 3160 c-3 -6 1 -13 10 -16 19 -8 30 0 20 15 -8 14 -22 14 -30 1z"/>
<path d="M1582 3148 c3 -7 12 -14 21 -16 12 -2 15 1 11 12 -7 19 -38 22 -32 4z"/>
<path d="M3506 3153 c-11 -11 -6 -23 9 -23 8 0 15 4 15 9 0 13 -16 22 -24 14z"/>
<path d="M1647 3144 c-13 -13 -7 -24 14 -24 11 0 19 5 17 12 -5 14 -22 21 -31
12z"/>
<path d="M2910 3140 c0 -5 7 -10 15 -10 8 0 15 5 15 10 0 6 -7 10 -15 10 -8 0
-15 -4 -15 -10z"/>
<path d="M1505 3131 c-6 -11 9 -23 19 -14 9 9 7 23 -3 23 -6 0 -12 -4 -16 -9z"/>
<path d="M2865 3129 c-4 -6 -5 -13 -2 -16 7 -7 27 6 27 18 0 12 -17 12 -25 -2z"/>
<path d="M3297 3119 c4 -13 8 -18 11 -10 2 7 -1 18 -6 23 -8 8 -9 4 -5 -13z"/>
<path d="M2120 3122 c0 -5 9 -17 20 -27 19 -18 20 -17 20 2 0 12 -7 24 -16 27
-21 8 -24 8 -24 -2z"/>
<path d="M1712 3108 c6 -18 28 -21 28 -4 0 9 -7 16 -16 16 -9 0 -14 -5 -12
-12z"/>
<path d="M3992 3100 c0 -14 2 -19 5 -12 2 6 2 18 0 25 -3 6 -5 1 -5 -13z"/>
<path d="M1600 3095 c0 -16 16 -20 24 -6 3 5 -1 11 -9 15 -9 3 -15 0 -15 -9z"/>
<path d="M3420 3102 c0 -5 7 -9 15 -9 8 0 15 4 15 9 0 4 -7 8 -15 8 -8 0 -15
-4 -15 -8z"/>
<path d="M3480 3100 c0 -5 7 -10 15 -10 8 0 15 5 15 10 0 6 -7 10 -15 10 -8 0
-15 -4 -15 -10z"/>
<path d="M1528 3088 c9 -9 15 -9 24 0 9 9 7 12 -12 12 -19 0 -21 -3 -12 -12z"/>
<path d="M1652 3088 c3 -7 18 -14 34 -16 l29 -2 -25 14 c-31 19 -43 20 -38 4z"/>
<path d="M1760 3079 c0 -18 2 -19 15 -9 8 7 15 16 15 21 0 5 -7 9 -15 9 -9 0
-15 -9 -15 -21z"/>
<path d="M3340 3084 l-25 -15 34 5 c18 3 37 6 42 6 5 0 9 5 9 10 0 15 -31 12
-60 -6z"/>
<path d="M3536 3091 c-3 -4 6 -13 20 -19 23 -11 24 -10 14 8 -11 21 -25 26
-34 11z"/>
<path d="M1428 3083 c0 -5 -2 -20 -2 -35 -2 -23 1 -25 17 -17 10 6 21 17 24
25 3 8 11 14 19 14 8 0 14 5 14 10 0 15 -8 12 -43 -12 -18 -12 -26 -15 -19 -8
6 8 12 18 12 22 0 10 -19 11 -22 1z"/>
<path d="M3626 3076 c3 -9 11 -16 16 -16 13 0 5 23 -10 28 -7 2 -10 -2 -6 -12z"/>
<path d="M2185 3070 c-3 -5 -3 -15 1 -21 4 -7 7 -24 8 -38 1 -36 36 -43 36 -7
0 16 -6 26 -15 26 -17 0 -20 16 -5 25 11 7 4 25 -10 25 -5 0 -12 -4 -15 -10z"/>
<path d="M2792 3068 c6 -18 28 -21 28 -4 0 9 -7 16 -16 16 -9 0 -14 -5 -12
-12z"/>
<path d="M2856 3073 c-12 -12 -6 -33 9 -33 8 0 15 6 15 14 0 17 -14 28 -24 19z"/>
<path d="M3246 3073 c-3 -3 -3 -10 0 -14 7 -12 34 -11 34 0 0 11 -26 22 -34
14z"/>
<path d="M3590 3069 c1 -19 60 -83 68 -74 4 4 0 12 -8 18 -9 7 -25 25 -38 41
-12 16 -22 22 -22 15z"/>
<path d="M1821 3056 c-16 -9 -20 -15 -12 -21 7 -4 18 0 25 10 12 17 19 15 160
-53 5 -3 5 1 1 8 -8 13 -123 70 -140 70 -5 -1 -21 -7 -34 -14z"/>
<path d="M3103 3047 c-73 -30 -66 -37 11 -13 36 11 62 24 60 28 -7 10 -10 10
-71 -15z"/>
<path d="M3931 3054 c0 -11 3 -14 6 -6 3 7 2 16 -1 19 -3 4 -6 -2 -5 -13z"/>
<path d="M3977 3063 c-4 -3 -7 -18 -6 -32 1 -26 1 -25 10 3 9 31 7 41 -4 29z"/>
<path d="M3195 3039 c-9 -14 -2 -20 14 -10 8 6 9 11 3 15 -6 3 -14 1 -17 -5z"/>
<path d="M1856 3032 c-3 -6 -1 -14 5 -17 15 -10 25 3 12 16 -7 7 -13 7 -17 1z"/>
<path d="M2800 3025 c-10 -11 -10 -19 -2 -27 15 -15 44 -2 40 19 -4 23 -22 27
-38 8z"/>
<path d="M3150 3020 c0 -5 7 -10 15 -10 8 0 15 5 15 10 0 6 -7 10 -15 10 -8 0
-15 -4 -15 -10z"/>
<path d="M1900 3011 c0 -5 28 -25 63 -45 34 -20 73 -44 87 -54 13 -9 21 -11
16 -4 -7 12 -150 112 -161 112 -3 0 -5 -4 -5 -9z"/>
<path d="M2028 3014 c-12 -11 4 -34 24 -34 13 0 18 6 16 17 -3 18 -29 29 -40
17z"/>
<path d="M2976 3005 c-3 -9 1 -18 9 -21 18 -7 47 14 39 27 -9 15 -41 10 -48
-6z m24 -5 c0 -5 -5 -10 -11 -10 -5 0 -7 5 -4 10 3 6 8 10 11 10 2 0 4 -4 4
-10z"/>
<path d="M3115 3009 c-10 -15 3 -25 16 -12 7 7 7 13 1 17 -6 3 -14 1 -17 -5z"/>
<path d="M1406 3001 c-4 -7 -5 -15 -2 -18 9 -9 19 4 14 18 -4 11 -6 11 -12 0z"/>
<path d="M3064 2986 c-10 -8 -16 -17 -13 -20 3 -4 17 2 30 13 27 23 13 28 -17
7z"/>
<path d="M1397 2953 c-4 -3 -6 -25 -6 -47 l2 -41 7 45 c8 48 7 54 -3 43z"/>
<path d="M2997 2935 c-15 -14 -24 -25 -20 -25 12 1 70 50 58 50 -5 -1 -23 -12
-38 -25z"/>
<path d="M3661 2913 c11 -57 24 -73 16 -18 -4 22 -7 46 -7 53 0 6 -4 12 -9 12
-5 0 -5 -20 0 -47z"/>
<path d="M2110 2935 c-10 -12 -9 -16 3 -21 20 -7 37 3 37 22 0 18 -24 18 -40
-1z"/>
<path d="M2923 2943 c-15 -5 -18 -33 -4 -33 17 0 41 12 41 20 0 11 -22 18 -37
13z"/>
<path d="M2120 2840 c0 -17 84 -42 125 -36 70 11 72 24 3 19 -48 -4 -74 -1
-97 10 -17 8 -31 12 -31 7z"/>
<path d="M2895 2835 c-36 -17 -112 -19 -152 -5 -26 9 -27 9 -9 -5 42 -32 133
-27 181 9 24 19 19 19 -20 1z"/>
<path d="M3657 2771 c-4 -19 -5 -36 -2 -39 10 -11 16 7 13 40 l-3 33 -8 -34z"/>
<path d="M2593 2665 c0 -33 2 -45 4 -27 2 18 2 45 0 60 -2 15 -4 0 -4 -33z"/>
<path d="M3650 2695 c0 -8 5 -15 10 -15 6 0 10 7 10 15 0 8 -4 15 -10 15 -5 0
-10 -7 -10 -15z"/>
<path d="M1430 2646 c0 -9 5 -16 10 -16 6 0 10 4 10 9 0 6 -4 13 -10 16 -5 3
-10 -1 -10 -9z"/>
<path d="M2471 2644 c0 -11 3 -14 6 -6 3 7 2 16 -1 19 -3 4 -6 -2 -5 -13z"/>
<path d="M3672 2645 c0 -11 4 -31 8 -45 6 -20 8 -21 8 -5 0 11 -4 31 -8 45 -6
20 -8 21 -8 5z"/>
<path d="M2707 2575 c7 -66 22 -95 58 -115 24 -13 31 -25 36 -62 13 -90 60
-142 127 -142 25 0 41 7 58 28 28 32 30 45 9 72 -13 16 -14 16 -9 1 10 -29
-22 -67 -57 -67 -41 0 -89 48 -89 89 0 34 -19 81 -33 81 -16 0 -47 43 -77 105
l-28 60 5 -50z"/>
<path d="M1395 2561 c-7 -12 12 -24 25 -16 11 7 4 25 -10 25 -5 0 -11 -4 -15
-9z"/>
<path d="M1503 2559 c-35 -44 -33 -137 5 -188 37 -51 76 -63 187 -57 55 3 114
10 130 15 l30 11 -35 -5 c-92 -15 -193 -18 -186 -7 4 7 23 12 42 12 52 0 33
17 -46 40 -80 24 -89 34 -104 129 -9 50 -14 61 -23 50z"/>
<path d="M3630 2555 c0 -8 5 -15 10 -15 6 0 10 7 10 15 0 8 -4 15 -10 15 -5 0
-10 -7 -10 -15z"/>
<path d="M3568 2523 c-8 -35 -49 -63 -92 -63 -43 0 -37 -16 18 -42 l54 -27 17
32 c11 21 15 49 13 82 -3 46 -4 48 -10 18z"/>
<path d="M1410 2506 c0 -8 5 -18 10 -21 6 -3 10 3 10 14 0 12 -4 21 -10 21 -5
0 -10 -6 -10 -14z"/>
<path d="M3634 2506 c-8 -22 3 -33 18 -18 9 9 9 15 0 24 -9 9 -13 7 -18 -6z"/>
<path d="M2435 2466 c-13 -13 -31 -50 -40 -82 -9 -33 -40 -108 -70 -169 -29
-60 -55 -125 -58 -143 -18 -92 50 -212 111 -197 39 9 88 50 120 98 l27 41 -2
217 c-1 138 -5 225 -13 238 -14 28 -45 27 -75 -3z"/>
<path d="M2553 2478 c-18 -24 -20 -52 -12 -249 8 -218 16 -248 83 -307 45 -39
69 -46 103 -30 43 21 68 73 68 143 0 52 -7 73 -47 151 -52 101 -101 241 -91
258 3 6 3 8 -2 4 -4 -4 -21 4 -37 17 -33 28 -51 31 -65 13z"/>
<path d="M2840 2458 c0 -7 4 -20 10 -28 8 -12 10 -12 16 3 4 12 13 16 28 12
18 -5 17 -4 -4 9 -31 19 -50 20 -50 4z"/>
<path d="M1420 2441 c0 -11 5 -23 10 -26 6 -4 10 5 10 19 0 14 -4 26 -10 26
-5 0 -10 -9 -10 -19z"/>
<path d="M2174 2445 c-10 -8 -14 -15 -7 -15 6 0 18 -3 27 -6 10 -4 16 -1 16 9
0 23 -15 28 -36 12z"/>
<path d="M2365 2427 c-8 -20 -15 -45 -15 -56 0 -11 -30 -78 -66 -149 -62 -121
-66 -134 -66 -195 0 -52 5 -75 27 -116 16 -28 33 -51 38 -51 6 0 3 8 -6 18
-30 32 -47 91 -47 156 0 60 5 73 66 190 63 121 101 222 90 234 -3 3 -13 -11
-21 -31z"/>
<path d="M3610 2422 c-13 -51 -82 -129 -123 -140 -17 -4 -32 -13 -34 -19 -7
-19 54 2 93 32 18 14 41 39 51 55 21 36 35 37 93 8 36 -18 51 -35 73 -78 19
-38 25 -46 21 -25 -11 51 -43 93 -88 114 -23 12 -50 21 -59 21 -19 0 -22 13
-7 40 6 12 7 21 0 25 -5 3 -14 -12 -20 -33z"/>
<path d="M2691 2416 c-1 -27 17 -76 63 -175 35 -75 66 -155 69 -177 7 -60 -9
-132 -40 -179 -14 -22 -19 -34 -10 -27 34 28 61 104 61 172 0 58 -6 78 -51
175 -50 107 -63 143 -82 215 l-9 35 -1 -39z"/>
<path d="M2752 2413 c2 -5 12 -25 21 -45 24 -52 30 -48 9 7 -9 25 -20 45 -25
45 -5 0 -7 -3 -5 -7z"/>
<path d="M1470 2391 c0 -6 4 -13 10 -16 6 -3 7 1 4 9 -7 18 -14 21 -14 7z"/>
<path d="M2293 2344 c-18 -30 -28 -52 -23 -49 12 8 64 95 59 100 -2 2 -19 -21
-36 -51z"/>
<path d="M1415 2369 c-27 -19 -20 -19 22 -2 7 3 18 -7 24 -21 23 -50 136 -104
182 -87 18 7 14 10 -28 17 -27 5 -56 8 -63 7 -7 0 -34 23 -60 53 l-48 53 -29
-20z"/>
<path d="M1512 2334 c15 -15 30 -26 33 -23 2 3 -10 16 -28 29 l-32 23 27 -29z"/>
<path d="M3037 2343 c-9 -9 -9 -43 1 -43 15 1 39 26 35 38 -5 13 -25 16 -36 5z"/>
<path d="M1271 2311 c-24 -33 -28 -56 -5 -26 20 26 36 55 30 55 -3 0 -14 -13
-25 -29z"/>
<path d="M1977 2333 c-14 -13 -7 -33 11 -33 24 0 32 8 25 26 -5 15 -25 19 -36
7z"/>
<path d="M1900 2305 c0 -8 7 -15 15 -15 8 0 15 7 15 15 0 8 -7 15 -15 15 -8 0
-15 -7 -15 -15z"/>
<path d="M3121 2306 c-9 -10 -9 -16 -1 -21 17 -10 37 12 24 25 -8 8 -15 6 -23
-4z"/>
<path d="M1753 2303 c-24 -2 -43 -8 -43 -13 0 -9 54 -3 100 11 28 8 17 8 -57
2z"/>
<path d="M1603 2293 c9 -2 23 -2 30 0 6 3 -1 5 -18 5 -16 0 -22 -2 -12 -5z"/>
<path d="M1856 2293 c-11 -11 -6 -23 9 -23 8 0 15 4 15 9 0 13 -16 22 -24 14z"/>
<path d="M3375 2290 l-80 -6 77 -2 c43 -1 80 2 83 8 3 6 5 9 3 8 -2 -1 -39 -5
-83 -8z"/>
<path d="M1791 2276 c-9 -10 -9 -16 -1 -21 17 -10 37 12 24 25 -8 8 -15 6 -23
-4z"/>
<path d="M3190 2280 c0 -14 26 -23 41 -15 8 6 7 10 -2 16 -19 12 -39 11 -39
-1z"/>
<path d="M1732 2268 c3 -7 13 -15 22 -16 12 -3 17 1 14 10 -3 7 -13 15 -22 16
-12 3 -17 -1 -14 -10z"/>
<path d="M1670 2260 c0 -5 9 -10 20 -10 11 0 20 5 20 10 0 6 -9 10 -20 10 -11
0 -20 -4 -20 -10z"/>
<path d="M3260 2260 c0 -14 26 -23 41 -15 8 6 7 10 -2 16 -19 12 -39 11 -39
-1z"/>
<path d="M3395 2259 c-4 -6 -5 -12 -3 -14 7 -7 48 7 48 16 0 13 -37 11 -45 -2z"/>
<path d="M1242 2240 c0 -14 2 -19 5 -12 2 6 2 18 0 25 -3 6 -5 1 -5 -13z"/>
<path d="M3338 2248 c9 -9 15 -9 24 0 9 9 7 12 -12 12 -19 0 -21 -3 -12 -12z"/>
<path d="M1920 2225 c-14 -8 -83 -33 -155 -55 -95 -31 -150 -55 -205 -90 -41
-27 -93 -56 -115 -65 l-40 -15 35 6 c33 6 49 13 161 77 60 35 187 61 262 54
47 -4 62 -10 78 -31 11 -14 25 -26 31 -26 6 0 3 9 -7 20 -42 47 23 107 83 76
49 -25 67 -76 67 -188 l0 -97 23 52 c45 99 41 164 -11 224 -57 64 -150 91
-207 58z"/>
<path d="M2991 2218 c-50 -24 -96 -82 -105 -132 -8 -40 5 -105 33 -167 14 -30
18 -35 13 -14 -30 127 36 275 122 275 46 0 67 -34 47 -77 l-13 -28 32 30 c31
29 34 30 128 29 133 0 197 -21 267 -84 39 -36 63 -50 83 -49 l27 1 -29 8 c-16
5 -50 29 -75 54 -55 54 -107 78 -224 106 -48 11 -110 31 -137 45 -61 31 -111
32 -169 3z"/>
<path d="M1753 2077 c-53 -20 -49 -27 16 -27 69 0 111 -14 159 -55 l33 -27
-17 43 c-24 63 -46 79 -108 78 -28 0 -65 -6 -83 -12z"/>
<path d="M2991 2035 c-21 -19 -31 -36 -31 -55 0 -45 18 -45 63 -1 33 34 39 45
31 58 -16 26 -29 26 -63 -2z"/>
<path d="M1777 2030 c22 -5 59 -18 82 -29 45 -24 113 -107 135 -167 8 -21 15
-32 15 -24 1 27 -46 117 -84 159 -38 42 -109 72 -164 70 -18 -1 -13 -4 16 -9z"/>
<path d="M3199 1991 c-51 -33 -91 -76 -119 -132 -30 -58 -24 -61 9 -4 28 48
88 111 141 147 41 28 18 20 -31 -11z"/>
<path d="M2908 1829 c-28 -26 -38 -44 -38 -67 0 -24 4 -30 15 -26 8 4 15 3 15
-1 0 -25 44 -222 51 -230 9 -9 13 6 9 35 -1 11 3 9 15 -5 16 -20 16 -19 9 5
-15 54 -24 71 -36 64 -8 -5 -9 -2 -5 9 3 10 2 17 -3 17 -6 0 -9 3 -8 8 1 4 -4
28 -11 55 -13 43 -12 49 5 68 14 16 16 24 7 38 -9 14 -8 22 4 34 8 8 14 19 12
24 -2 4 -21 -8 -41 -28z m8 -58 c-8 -13 -36 -15 -36 -3 0 4 5 13 12 20 14 14
34 0 24 -17z"/>
<path d="M2119 1842 c6 -12 16 -22 22 -22 6 0 6 -6 0 -19 -13 -24 9 -57 33
-48 28 11 18 44 -25 78 -34 27 -40 29 -30 11z m51 -57 c0 -8 -4 -15 -10 -15
-5 0 -10 7 -10 15 0 8 5 15 10 15 6 0 10 -7 10 -15z"/>
<path d="M2456 1800 c15 -28 19 -56 19 -135 0 -85 -4 -109 -26 -162 -15 -35
-25 -63 -22 -63 2 0 15 7 28 16 33 22 45 70 45 187 0 102 -12 150 -45 177 -17
14 -17 13 1 -20z"/>
<path d="M2614 1775 c-9 -13 -20 -44 -26 -67 -12 -56 0 -222 18 -245 13 -16
14 -11 7 42 -13 96 -8 216 10 258 18 43 15 48 -9 12z"/>
<path d="M2161 1724 c0 -11 3 -14 6 -6 3 7 2 16 -1 19 -3 4 -6 -2 -5 -13z"/>
<path d="M2100 1689 c0 -6 -13 -41 -30 -79 -34 -77 -36 -90 -15 -90 9 0 20 19
29 53 18 66 29 127 21 127 -3 0 -5 -5 -5 -11z"/>
<path d="M2241 1674 c0 -12 -10 -52 -22 -88 -18 -62 -19 -113 0 -101 12 7 34
145 28 180 -2 19 -5 22 -6 9z"/>
<path d="M2127 1597 c-30 -94 -36 -139 -12 -97 15 27 50 168 43 175 -2 3 -16
-33 -31 -78z"/>
<path d="M2346 1596 c-28 -84 -31 -116 -9 -123 7 -3 14 13 18 44 3 26 10 72
15 102 6 30 9 56 7 57 -1 2 -15 -34 -31 -80z"/>
<path d="M2800 1674 c0 -12 59 -197 66 -203 2 -2 6 3 9 11 4 9 -12 58 -34 109
-22 52 -41 89 -41 83z"/>
<path d="M2701 1653 c-1 -17 37 -174 43 -181 3 -3 8 2 12 11 3 9 -8 54 -24 99
-17 46 -31 78 -31 71z"/>
<path d="M1581 1279 c0 -137 11 -192 24 -125 7 35 -10 234 -21 245 -2 2 -4
-52 -3 -120z"/>
<path d="M1552 1310 c0 -14 2 -19 5 -12 2 6 2 18 0 25 -3 6 -5 1 -5 -13z"/>
<path d="M1536 1224 c-4 -20 -5 -38 -3 -40 3 -3 8 11 11 32 4 20 5 38 3 40 -3
3 -8 -11 -11 -32z"/>
<path d="M3511 1244 c0 -11 3 -14 6 -6 3 7 2 16 -1 19 -3 4 -6 -2 -5 -13z"/>
<path d="M3122 1213 c-13 -20 -22 -45 -20 -57 3 -17 9 -12 36 28 35 54 38 66
20 66 -7 -1 -23 -17 -36 -37z"/>
<path d="M1930 1197 c0 -26 25 -65 35 -55 9 9 -14 78 -26 78 -5 0 -9 -10 -9
-23z"/>
<path d="M3311 1152 c-36 -57 -47 -102 -32 -131 26 -48 111 -4 111 58 0 46
-22 121 -36 121 -7 0 -26 -22 -43 -48z m49 -7 c0 -13 -11 -37 -25 -52 l-24
-28 -1 28 c0 32 29 89 42 81 4 -3 8 -16 8 -29z"/>
<path d="M3036 1145 c-28 -63 -32 -116 -9 -144 19 -24 44 -22 42 2 0 8 -2 8
-6 -1 -8 -21 -43 16 -43 45 0 13 9 42 21 64 11 22 18 48 16 57 -2 11 -9 4 -21
-23z"/>
<path d="M2000 1157 c0 -9 9 -39 20 -67 22 -56 26 -115 9 -126 -15 -9 -36 14
-54 61 -14 38 -15 38 -10 8 7 -48 34 -85 59 -81 29 4 43 49 29 96 -27 90 -53
144 -53 109z"/>
<path d="M2925 1088 c-9 -29 -39 -101 -67 -160 -39 -85 -51 -121 -53 -170 l-4
-63 8 57 c5 32 19 79 33 105 14 27 39 75 56 108 32 64 66 175 52 175 -5 0 -16
-24 -25 -52z"/>
<path d="M2822 1088 c-20 -20 -25 -21 -54 -10 -26 9 -36 9 -53 -2 -11 -8 -30
-16 -40 -19 -19 -5 -19 -5 0 -6 11 0 30 6 42 14 19 13 24 13 51 -2 29 -17 31
-17 51 1 17 16 23 17 36 6 11 -9 19 -10 26 -3 7 7 2 13 -16 17 -14 4 -23 11
-20 16 10 16 1 11 -23 -12z"/>
<path d="M2280 1075 c-15 -8 -19 -14 -10 -14 18 -1 46 16 40 23 -3 2 -16 -2
-30 -9z"/>
<path d="M2406 1051 c-22 -25 -20 -38 3 -17 13 12 27 16 43 11 26 -8 23 -3 -8
13 -17 9 -25 8 -38 -7z"/>
<path d="M3190 1038 c0 -15 23 -20 36 -7 11 12 9 14 -11 14 -14 0 -25 -3 -25
-7z"/>
<path d="M1611 1021 c9 -14 59 -47 118 -76 114 -58 169 -105 213 -182 42 -74
47 -67 6 8 -43 80 -104 133 -208 181 -47 22 -98 52 -114 66 -29 26 -30 26 -15
3z"/>
<path d="M2190 1031 c0 -8 20 -48 44 -90 24 -42 47 -86 51 -99 4 -13 9 -22 11
-19 3 2 -5 29 -16 58 -23 61 -89 172 -90 150z"/>
<path d="M3419 1016 c-15 -12 -61 -42 -104 -66 -94 -51 -159 -114 -203 -196
-47 -90 -39 -91 13 -2 46 79 99 132 175 175 93 53 138 84 144 98 7 19 6 19
-25 -9z"/>
<path d="M2316 1011 c-3 -5 12 -54 34 -109 22 -56 44 -127 49 -159 8 -53 9
-54 10 -17 2 68 -62 294 -84 294 -2 0 -6 -4 -9 -9z"/>
<path d="M2696 998 c-41 -62 -107 -253 -105 -303 0 -11 7 5 15 35 8 30 39 106
69 167 29 62 50 115 45 118 -5 3 -16 -5 -24 -17z"/>
<path d="M2257 993 c-4 -3 -7 -11 -7 -17 0 -6 5 -5 12 2 6 6 9 14 7 17 -3 3
-9 2 -12 -2z"/>
<path d="M2767 993 c-4 -3 -7 -16 -7 -27 0 -12 -11 -57 -25 -101 -14 -44 -27
-102 -30 -130 l-5 -50 14 60 c18 75 51 160 77 197 12 16 18 35 15 43 -6 16
-28 20 -39 8z"/>
<path d="M2414 952 c9 -17 27 -68 41 -114 l25 -83 -6 65 c-8 83 -34 154 -57
158 -17 4 -17 2 -3 -26z"/>
<path d="M3176 942 c-11 -14 -20 -36 -21 -48 -1 -21 2 -20 40 13 58 52 65 61
22 29 -42 -31 -61 -28 -32 4 10 11 16 22 14 24 -2 2 -13 -8 -23 -22z"/>
<path d="M2586 914 c-21 -62 -13 -69 9 -9 10 25 15 48 13 51 -3 3 -13 -16 -22
-42z"/>
<path d="M1864 926 c11 -9 24 -16 30 -16 12 0 7 5 -24 19 -24 11 -24 11 -6 -3z"/>
<path d="M2522 910 c0 -19 2 -27 5 -17 2 9 2 25 0 35 -3 9 -5 1 -5 -18z"/>
<path d="M2056 869 c-48 -37 -22 -101 40 -98 27 2 27 2 4 6 -34 7 -50 21 -50
47 0 47 57 63 84 24 21 -30 20 -60 -4 -85 -44 -48 -96 -33 -132 38 -17 33 -18
33 -18 8 0 -16 12 -40 29 -58 41 -44 98 -44 135 0 34 40 33 74 -3 110 -35 34
-49 36 -85 8z"/>
<path d="M2913 865 c-27 -19 -38 -67 -22 -97 16 -31 28 -38 65 -38 41 0 70 25
89 75 9 23 10 32 2 21 -33 -50 -71 -86 -92 -86 -25 0 -49 22 -37 35 4 5 1 5
-5 1 -17 -10 -18 55 -1 72 29 29 84 3 76 -35 -4 -23 -48 -31 -48 -9 0 9 -4 16
-9 16 -4 0 -6 -11 -4 -24 5 -22 8 -23 36 -15 50 14 61 45 27 79 -24 24 -48 25
-77 5z"/>
<path d="M2532 840 c0 -14 2 -19 5 -12 2 6 2 18 0 25 -3 6 -5 1 -5 -13z"/>
<path d="M2100 809 c0 -5 5 -7 10 -4 6 3 10 8 10 11 0 2 -4 4 -10 4 -5 0 -10
-5 -10 -11z"/>
<path d="M2532 596 l-2 -170 -37 45 c-58 67 -105 115 -101 103 2 -7 35 -48 74
-92 l71 -80 92 99 c99 106 110 135 17 44 -43 -43 -58 -52 -62 -40 -4 8 -4 24
-1 35 3 11 2 20 -3 20 -16 0 -18 -28 -4 -55 13 -25 12 -29 -11 -57 l-25 -30 0
32 c0 21 4 29 12 24 7 -5 8 -3 2 7 -4 8 -11 75 -14 149 l-7 135 -1 -169z"/>
<path d="M2203 650 c-30 -12 -32 -69 -3 -95 46 -41 129 16 105 71 -7 18 -8 18
-12 2 -6 -24 -16 -22 -28 4 -11 26 -30 31 -62 18z m41 -16 c18 -7 21 -39 5
-50 -16 -9 -41 20 -33 39 7 19 7 19 28 11z m-20 -62 c18 -8 27 -7 39 6 9 9 20
13 24 9 10 -10 -7 -24 -38 -32 -33 -8 -60 16 -58 53 l2 27 4 -26 c2 -15 14
-31 27 -37z"/>
<path d="M2802 640 c-41 -38 -23 -90 30 -90 51 0 89 65 56 98 -18 18 -62 14
-86 -8z m78 -28 c0 -21 -30 -52 -50 -52 -25 0 -45 26 -29 36 7 4 15 2 17 -4 2
-7 11 -12 19 -12 13 0 13 3 3 15 -7 8 -20 15 -29 15 -10 0 -6 7 14 20 31 20
55 13 55 -18z"/>
<path d="M2480 541 c0 -12 5 -21 10 -21 6 0 10 6 10 14 0 8 -4 18 -10 21 -5 3
-10 -3 -10 -14z"/>
</g>
</svg>